<svg xmlns="http://www.w3.org/2000/svg" width="132" height="22" viewBox="0 0 132 22" fill="none">
  <g clip-path="url(#clip0_1154_341)">
    <path d="M13.9815 10.9951H19.9896C20.2395 10.9951 20.3647 11.2994 20.188 11.4774L16.2246 15.4684H9.53906L13.9815 10.9951Z" fill="#4340F4"/>
    <path d="M16.2245 16.0793H9.53906L13.9814 20.5526H19.9895C20.2395 20.5526 20.3647 20.2483 20.1879 20.0703L16.2245 16.0793Z" fill="#4340F4"/>
    <path d="M10.3154 0.340822L1.12369 0.34082C0.503092 0.34082 -1.04624e-07 0.847416 0 1.47233L1.54961e-06 10.7281L10.3154 0.340822Z" fill="#4340F4"/>
    <path d="M6.08594 5.63976L10.8657 0.82666L15.6455 5.63976L10.8657 10.4528L6.08594 5.63976Z" fill="#4340F4"/>
    <path d="M19.7455 0.257812C20.2505 0.257812 20.4991 0.876544 20.1362 1.23016L16.1941 5.07091L11.4143 0.257812H19.7455Z" fill="#4340F4"/>
    <path d="M5.52734 15.8066L10.3071 10.9935L5.52734 6.18042V15.8066Z" fill="#4340F4"/>
    <path d="M0 11.7472V19.9992C0 20.5032 0.605185 20.7556 0.959127 20.3992L4.77981 16.5519V6.94655L4.77567 6.94238L0 11.7472Z" fill="#4340F4"/>
    <path d="M27.6523 17.4774V3.22144H33.5413C34.6086 3.22144 35.5298 3.41402 36.3048 3.7992C37.0844 4.17973 37.6854 4.72732 38.1077 5.44197C38.53 6.15199 38.7411 6.99426 38.7411 7.96879C38.7411 8.95725 38.5253 9.79719 38.0938 10.4887C37.6622 11.1755 37.0496 11.6999 36.2561 12.0619C35.4625 12.4192 34.5228 12.5978 33.4369 12.5978H29.7128V9.88305H32.7965C33.3162 9.88305 33.7501 9.81576 34.0982 9.68118C34.4508 9.54197 34.7177 9.33313 34.8987 9.0547C35.0797 8.77162 35.1701 8.40965 35.1701 7.96879C35.1701 7.52793 35.0797 7.16364 34.8987 6.87592C34.7177 6.58357 34.4508 6.36545 34.0982 6.2216C33.7455 6.0731 33.3116 5.99885 32.7965 5.99885H31.098V17.4774H27.6523ZM35.6783 10.962L39.2284 17.4774H35.4695L31.989 10.962H35.6783Z" fill="#4340F4"/>
    <path d="M45.4164 17.6793C44.298 17.6793 43.3327 17.4589 42.5206 17.0181C41.7132 16.5725 41.0913 15.9391 40.6551 15.1177C40.2235 14.2917 40.0078 13.3102 40.0078 12.1733C40.0078 11.0688 40.2259 10.1035 40.6621 9.27747C41.0983 8.4468 41.7132 7.80176 42.5067 7.34233C43.3003 6.87828 44.2353 6.64624 45.312 6.64624C46.0731 6.64624 46.7691 6.76458 47.4002 7.00125C48.0314 7.23792 48.5767 7.58829 49.036 8.05235C49.4955 8.51641 49.8528 9.08953 50.108 9.7717C50.3633 10.4493 50.4909 11.2266 50.4909 12.1037V12.9529H41.198V10.976H47.3236C47.319 10.614 47.2332 10.2915 47.0661 10.0084C46.8991 9.72529 46.6693 9.50487 46.377 9.34708C46.0893 9.18467 45.7575 9.10345 45.3816 9.10345C45.0011 9.10345 44.6599 9.18931 44.3583 9.361C44.0566 9.52807 43.8177 9.75778 43.6413 10.0501C43.465 10.3379 43.3721 10.6651 43.3629 11.0317V13.0433C43.3629 13.4796 43.4487 13.8625 43.6204 14.192C43.7921 14.5168 44.0358 14.7696 44.3513 14.9507C44.6669 15.1316 45.0428 15.2221 45.479 15.2221C45.7806 15.2221 46.0545 15.1804 46.3004 15.0968C46.5463 15.0133 46.7575 14.8904 46.9338 14.7279C47.1102 14.5655 47.2424 14.3659 47.3306 14.1293L50.4561 14.2198C50.3261 14.9205 50.0407 15.5307 49.5999 16.0505C49.1637 16.5656 48.5906 16.967 47.8805 17.2548C47.1705 17.5378 46.3491 17.6793 45.4164 17.6793Z" fill="white"/>
    <path d="M61.5657 10.0501L58.4403 10.1337C58.4078 9.91091 58.3197 9.71369 58.1758 9.54199C58.0319 9.36564 57.844 9.22874 57.6119 9.13129C57.3846 9.0292 57.12 8.97815 56.8185 8.97815C56.424 8.97815 56.0876 9.05705 55.809 9.21482C55.5353 9.37261 55.4007 9.58607 55.4053 9.85523C55.4007 10.0641 55.4842 10.245 55.6559 10.3982C55.8323 10.5514 56.1455 10.6743 56.5957 10.7672L58.6561 11.157C59.7235 11.3612 60.517 11.6999 61.0367 12.1733C61.5612 12.6466 61.8257 13.2731 61.8303 14.0528C61.8257 14.7859 61.6076 15.424 61.1759 15.9669C60.749 16.51 60.1643 16.9322 59.4218 17.2339C58.6793 17.5309 57.83 17.6793 56.8741 17.6793C55.3473 17.6793 54.1431 17.3661 53.2614 16.7397C52.3843 16.1085 51.8831 15.264 51.7578 14.2059L55.12 14.1223C55.1942 14.5121 55.3868 14.8091 55.6977 15.0133C56.0087 15.2175 56.4054 15.3196 56.888 15.3196C57.3242 15.3196 57.6792 15.2384 57.9531 15.076C58.2269 14.9135 58.3661 14.6978 58.3707 14.4286C58.3661 14.1873 58.2593 13.9947 58.0505 13.8508C57.8417 13.7023 57.5145 13.5864 57.069 13.5028L55.2034 13.1478C54.1315 12.9529 53.3333 12.5932 52.8089 12.0688C52.2845 11.5398 52.0247 10.8669 52.0292 10.0501C52.0247 9.33549 52.215 8.72524 52.6001 8.21941C52.9853 7.70895 53.5329 7.31913 54.2429 7.04997C54.9528 6.78082 55.7906 6.64624 56.7558 6.64624C58.2036 6.64624 59.3452 6.9502 60.1805 7.55812C61.0159 8.16141 61.4776 8.99207 61.5657 10.0501Z" fill="white"/>
    <path d="M69.5381 6.78549V9.29143H62.793V6.78549H69.5381ZM64.206 4.22388H67.6099V14.1153C67.6099 14.3242 67.6424 14.4936 67.7074 14.6235C67.777 14.7488 67.8768 14.8393 68.0067 14.895C68.1366 14.946 68.2921 14.9715 68.4731 14.9715C68.603 14.9715 68.7399 14.9599 68.8838 14.9368C69.0323 14.9089 69.1437 14.8857 69.2179 14.8671L69.7331 17.3243C69.5706 17.3707 69.3409 17.4287 69.0439 17.4984C68.7516 17.5679 68.4011 17.6121 67.9928 17.6306C67.1946 17.6678 66.5101 17.5749 65.9394 17.3522C65.3732 17.1248 64.9393 16.7722 64.6376 16.2941C64.3406 15.8161 64.1968 15.2152 64.206 14.4912V4.22388Z" fill="white"/>
    <path d="M76.1517 17.6793C75.0286 17.6793 74.0634 17.4496 73.2559 16.9903C72.4531 16.5261 71.8336 15.8811 71.3974 15.0551C70.9658 14.2244 70.75 13.2614 70.75 12.1663C70.75 11.0665 70.9658 10.1035 71.3974 9.27747C71.8336 8.4468 72.4531 7.80176 73.2559 7.34233C74.0634 6.87828 75.0286 6.64624 76.1517 6.64624C77.2747 6.64624 78.2377 6.87828 79.0405 7.34233C79.8479 7.80176 80.4674 8.4468 80.8991 9.27747C81.3353 10.1035 81.5534 11.0665 81.5534 12.1663C81.5534 13.2614 81.3353 14.2244 80.8991 15.0551C80.4674 15.8811 79.8479 16.5261 79.0405 16.9903C78.2377 17.4496 77.2747 17.6793 76.1517 17.6793ZM76.1726 15.1107C76.5809 15.1107 76.9267 14.9855 77.2098 14.7349C77.4929 14.4843 77.7086 14.1362 77.8571 13.6908C78.0102 13.2452 78.0868 12.7302 78.0868 12.1454C78.0868 11.5514 78.0102 11.0317 77.8571 10.5862C77.7086 10.1406 77.4929 9.79259 77.2098 9.54199C76.9267 9.2914 76.5809 9.16609 76.1726 9.16609C75.7503 9.16609 75.393 9.2914 75.1005 9.54199C74.8129 9.79259 74.5924 10.1406 74.4393 10.5862C74.2908 11.0317 74.2165 11.5514 74.2165 12.1454C74.2165 12.7302 74.2908 13.2452 74.4393 13.6908C74.5924 14.1362 74.8129 14.4843 75.1005 14.7349C75.393 14.9855 75.7503 15.1107 76.1726 15.1107Z" fill="white"/>
    <path d="M91.1164 7.72673C91.07 7.21626 90.8636 6.81949 90.4969 6.53641C90.135 6.24869 89.6176 6.10483 88.9447 6.10483C88.4992 6.10483 88.128 6.16283 87.831 6.27886C87.5339 6.39487 87.3112 6.55497 87.1627 6.75916C87.0142 6.95871 86.9376 7.18842 86.9329 7.44829C86.9237 7.66176 86.9654 7.84971 87.0582 8.01212C87.1557 8.17455 87.2949 8.3184 87.476 8.44371C87.6616 8.56436 87.8843 8.6711 88.1442 8.76391C88.4041 8.85672 88.6964 8.93793 89.0212 9.00754L90.2463 9.28598C90.9517 9.43912 91.5736 9.6433 92.1119 9.89854C92.6549 10.1538 93.1096 10.4577 93.4763 10.8104C93.8475 11.1631 94.1283 11.5692 94.3186 12.0286C94.5088 12.488 94.6062 13.0031 94.6109 13.5739C94.6062 14.4742 94.3789 15.2469 93.9287 15.8919C93.4786 16.537 92.8312 17.0312 91.9866 17.3746C91.1466 17.718 90.1327 17.8897 88.9447 17.8897C87.7521 17.8897 86.7126 17.711 85.8262 17.3537C84.9399 16.9964 84.2507 16.4534 83.7588 15.7248C83.2669 14.9963 83.0139 14.0751 83 12.9614H86.2995C86.3273 13.4208 86.4504 13.8036 86.6685 14.1099C86.8866 14.4162 87.1859 14.6482 87.5664 14.806C87.9516 14.9638 88.3971 15.0427 88.9029 15.0427C89.367 15.0427 89.7615 14.98 90.0863 14.8547C90.4158 14.7294 90.6686 14.5554 90.845 14.3326C91.0214 14.1099 91.1119 13.8546 91.1164 13.567C91.1119 13.2978 91.0283 13.0681 90.8659 12.8778C90.7035 12.6829 90.4529 12.5158 90.1141 12.3766C89.7799 12.2328 89.3531 12.1005 88.8333 11.9798L87.3437 11.6318C86.1092 11.3487 85.137 10.8916 84.4271 10.2605C83.717 9.62474 83.3643 8.76622 83.369 7.68497C83.3643 6.80325 83.601 6.03058 84.079 5.36697C84.5569 4.70336 85.2183 4.18594 86.0628 3.81468C86.9074 3.44344 87.8704 3.25781 88.9517 3.25781C90.0561 3.25781 91.0144 3.44576 91.8265 3.82165C92.6432 4.19289 93.2767 4.71497 93.7269 5.38786C94.177 6.06074 94.4067 6.84037 94.4159 7.72673H91.1164Z" fill="white"/>
    <path d="M103.137 12.8623V6.7854H106.534V17.4773H103.29V15.4865H103.178C102.942 16.1408 102.538 16.6606 101.967 17.0458C101.401 17.4264 100.717 17.6166 99.9136 17.6166C99.185 17.6166 98.5447 17.4495 97.9924 17.1154C97.4403 16.7813 97.0109 16.3149 96.7047 15.7163C96.3984 15.1129 96.243 14.4076 96.2383 13.6002V6.7854H99.6422V12.9319C99.6469 13.5119 99.8 13.9691 100.102 14.3031C100.403 14.6373 100.814 14.8044 101.334 14.8044C101.673 14.8044 101.977 14.7301 102.246 14.5816C102.519 14.4284 102.735 14.2081 102.893 13.9203C103.056 13.628 103.137 13.2753 103.137 12.8623Z" fill="white"/>
    <path d="M108.698 17.4773V6.78533H112.102V17.4773H108.698ZM110.404 5.53933C109.926 5.53933 109.515 5.38155 109.171 5.06599C108.828 4.74578 108.656 4.36061 108.656 3.91047C108.656 3.46497 108.828 3.08444 109.171 2.76888C109.515 2.44867 109.926 2.28857 110.404 2.28857C110.886 2.28857 111.297 2.44867 111.636 2.76888C111.979 3.08444 112.151 3.46497 112.151 3.91047C112.151 4.36061 111.979 4.74578 111.636 5.06599C111.297 5.38155 110.886 5.53933 110.404 5.53933Z" fill="white"/>
    <path d="M120.308 6.78549V9.29143H113.562V6.78549H120.308ZM114.976 4.22388H118.38V14.1153C118.38 14.3242 118.412 14.4936 118.477 14.6235C118.547 14.7488 118.646 14.8393 118.776 14.895C118.906 14.946 119.062 14.9715 119.243 14.9715C119.373 14.9715 119.51 14.9599 119.653 14.9368C119.802 14.9089 119.913 14.8857 119.988 14.8671L120.503 17.3243C120.34 17.3707 120.109 17.4287 119.813 17.4984C119.52 17.5679 119.171 17.6121 118.762 17.6306C117.964 17.6678 117.28 17.5749 116.709 17.3522C116.143 17.1248 115.709 16.7722 115.407 16.2941C115.11 15.8161 114.966 15.2152 114.976 14.4912V4.22388Z" fill="white"/>
    <path d="M126.925 17.6793C125.806 17.6793 124.841 17.4589 124.029 17.0181C123.221 16.5725 122.6 15.9391 122.163 15.1177C121.732 14.2917 121.516 13.3102 121.516 12.1733C121.516 11.0688 121.734 10.1035 122.17 9.27747C122.607 8.4468 123.221 7.80176 124.015 7.34233C124.809 6.87828 125.744 6.64624 126.82 6.64624C127.581 6.64624 128.277 6.76458 128.909 7.00125C129.54 7.23792 130.085 7.58829 130.544 8.05235C131.004 8.51641 131.361 9.08953 131.616 9.7717C131.871 10.4493 131.999 11.2266 131.999 12.1037V12.9529H122.706V10.976H128.832C128.827 10.614 128.742 10.2915 128.574 10.0084C128.407 9.72529 128.178 9.50487 127.885 9.34708C127.598 9.18467 127.266 9.10345 126.89 9.10345C126.509 9.10345 126.168 9.18931 125.867 9.361C125.565 9.52807 125.326 9.75778 125.15 10.0501C124.973 10.3379 124.88 10.6651 124.871 11.0317V13.0433C124.871 13.4796 124.957 13.8625 125.129 14.192C125.301 14.5168 125.544 14.7696 125.86 14.9507C126.175 15.1316 126.551 15.2221 126.987 15.2221C127.289 15.2221 127.563 15.1804 127.809 15.0968C128.055 15.0133 128.266 14.8904 128.442 14.7279C128.619 14.5655 128.751 14.3659 128.839 14.1293L131.965 14.2198C131.835 14.9205 131.549 15.5307 131.109 16.0505C130.672 16.5656 130.099 16.967 129.388 17.2548C128.679 17.5378 127.857 17.6793 126.925 17.6793Z" fill="white"/>
  </g>
  <defs>
    <clipPath id="clip0_1154_341">
      <rect width="132" height="21" fill="white" transform="translate(0 0.257812)"/>
    </clipPath>
  </defs>
</svg>