<svg xmlns="http://www.w3.org/2000/svg" width="85" height="86" viewBox="0 0 85 86" fill="none">
  <path d="M67.5254 85.0673C66.1635 85.0673 65.0593 83.9632 65.0593 82.6012V72.408C65.0593 71.0461 66.1635 69.9419 67.5254 69.9419C68.8874 69.9419 69.9915 71.0461 69.9915 72.408V82.6012C69.9915 83.9632 68.8874 85.0673 67.5254 85.0673Z" fill="#BCE4F1" fill-opacity="0.5"/>
  <path d="M17.8746 85.0673C16.5126 85.0673 15.4084 83.9632 15.4084 82.6012V72.408C15.4084 71.0461 16.5126 69.9419 17.8746 69.9419C19.2365 69.9419 20.3407 71.0461 20.3407 72.408V82.6012C20.3407 83.9632 19.2365 85.0673 17.8746 85.0673Z" fill="#BCE4F1" fill-opacity="0.5"/>
  <path d="M72.4577 74.8741H62.5933C61.2314 74.8741 60.1272 73.77 60.1272 72.408V67.4758C60.1272 63.3964 63.4461 60.0775 67.5255 60.0775C71.6049 60.0775 74.9238 63.3964 74.9238 67.4758V72.408C74.9238 73.77 73.8197 74.8741 72.4577 74.8741Z" fill="url(#paint0_linear_1154_407)"/>
  <path d="M67.5254 65.0097C62.2992 65.0097 56.6607 60.6664 53.1605 53.9448C52.6168 52.9006 52.8869 51.6178 53.8055 50.8814C60.3347 45.6485 64.8949 36.2474 64.8949 28.0198C64.8949 26.6684 65.9826 25.5686 67.3339 25.5538C71.9734 25.5034 76.3534 27.2757 79.6598 30.5459C82.9668 33.8168 84.7881 38.1739 84.7881 42.8148C84.7881 47.8193 82.8756 53.2395 79.5408 57.6854C76.0496 62.3401 71.6701 65.0097 67.5254 65.0097Z" fill="url(#paint1_linear_1154_407)"/>
  <path d="M22.8068 74.8741H12.9424C11.5805 74.8741 10.4763 73.77 10.4763 72.408V67.4758C10.4763 63.3964 13.7952 60.0775 17.8746 60.0775C21.9541 60.0775 25.2729 63.3964 25.2729 67.4758V72.408C25.2729 73.77 24.1688 74.8741 22.8068 74.8741Z" fill="url(#paint2_linear_1154_407)"/>
  <path d="M17.8745 65.0097C13.7298 65.0097 9.35037 62.3401 5.85919 57.6854C2.52436 53.2395 0.611816 47.8193 0.611816 42.8148C0.611816 38.1739 2.43312 33.8168 5.74016 30.5459C9.04622 27.2758 13.4255 25.5034 18.0661 25.5538C19.4175 25.5686 20.5051 26.6684 20.5051 28.0198C20.5051 36.2474 25.0652 45.6485 31.5945 50.8814C32.513 51.6176 32.7831 52.9005 32.2394 53.9448C28.7392 60.6664 23.1007 65.0097 17.8745 65.0097Z" fill="url(#paint3_linear_1154_407)"/>
  <path d="M42.7 85.0674C41.338 85.0674 40.2339 83.9632 40.2339 82.6012V67.4758C40.2339 66.1139 41.338 65.0097 42.7 65.0097C44.0619 65.0097 45.1661 66.1139 45.1661 67.4758V82.6012C45.1661 83.9632 44.0619 85.0674 42.7 85.0674Z" fill="#BCE4F1" fill-opacity="0.5"/>
  <path d="M47.6323 69.9419H37.7679C36.4059 69.9419 35.3018 68.8377 35.3018 67.4758V62.5436C35.3018 58.4641 38.6206 55.1453 42.7001 55.1453C46.7795 55.1453 50.0984 58.4641 50.0984 62.5436V67.4758C50.0984 68.8377 48.9942 69.9419 47.6323 69.9419Z" fill="url(#paint4_linear_1154_407)"/>
  <g filter="url(#filter0_bi_1154_407)">
    <path d="M42.6999 60.0775C37.7803 60.0775 32.8733 58.2282 28.5094 54.7298C20.7718 48.5284 15.5728 37.7942 15.5728 28.0197C15.5728 13.0602 27.742 0.890961 42.6999 0.890961C57.6578 0.890961 69.827 13.0602 69.827 28.0181V28.0197C69.827 37.7942 64.628 48.5284 56.89 54.7301C52.5265 58.2282 47.6194 60.0775 42.6999 60.0775Z" fill="#BCE4F1" fill-opacity="0.5"/>
  </g>
  <path d="M50.2927 39.153H34.9879C34.049 39.153 33.2489 38.4716 33.0993 37.5448L31.246 26.0662C31.1244 25.3135 31.4614 24.5605 32.1038 24.1497C32.7462 23.7387 33.5712 23.7487 34.2035 24.1747L38.0769 26.7841L40.9292 21.0795C41.2533 20.4314 41.9156 20.022 42.6403 20.022C43.3649 20.022 44.0273 20.4314 44.3515 21.0795L47.2038 26.7841L51.0772 24.1747C51.7096 23.7487 52.5346 23.7389 53.1768 24.1497C53.8193 24.5605 54.1562 25.3135 54.0347 26.0662L52.1814 37.5448C52.0317 38.4716 51.2315 39.153 50.2927 39.153Z" fill="white"/>
  <defs>
    <filter id="filter0_bi_1154_407" x="11.5728" y="-3.10904" width="62.2544" height="67.1865" filterUnits="userSpaceOnUse" color-interpolation-filters="sRGB">
      <feFlood flood-opacity="0" result="BackgroundImageFix"/>
      <feGaussianBlur in="BackgroundImageFix" stdDeviation="2"/>
      <feComposite in2="SourceAlpha" operator="in" result="effect1_backgroundBlur_1154_407"/>
      <feBlend mode="normal" in="SourceGraphic" in2="effect1_backgroundBlur_1154_407" result="shape"/>
      <feColorMatrix in="SourceAlpha" type="matrix" values="0 0 0 0 0 0 0 0 0 0 0 0 0 0 0 0 0 0 127 0" result="hardAlpha"/>
      <feOffset dx="0.2" dy="0.1"/>
      <feGaussianBlur stdDeviation="0.5"/>
      <feComposite in2="hardAlpha" operator="arithmetic" k2="-1" k3="1"/>
      <feColorMatrix type="matrix" values="0 0 0 0 1 0 0 0 0 1 0 0 0 0 1 0 0 0 0.6 0"/>
      <feBlend mode="normal" in2="shape" result="effect2_innerShadow_1154_407"/>
    </filter>
    <linearGradient id="paint0_linear_1154_407" x1="61.1304" y1="64.5917" x2="74.2968" y2="63.3378" gradientUnits="userSpaceOnUse">
      <stop stop-color="#0B5CD6"/>
      <stop offset="1" stop-color="#0085FF"/>
    </linearGradient>
    <linearGradient id="paint1_linear_1154_407" x1="55.0447" y1="37.5905" x2="83.5248" y2="35.3971" gradientUnits="userSpaceOnUse">
      <stop stop-color="#0B5CD6"/>
      <stop offset="1" stop-color="#0085FF"/>
    </linearGradient>
    <linearGradient id="paint2_linear_1154_407" x1="11.4795" y1="64.5917" x2="24.646" y2="63.3378" gradientUnits="userSpaceOnUse">
      <stop stop-color="#0B5CD6"/>
      <stop offset="1" stop-color="#0085FF"/>
    </linearGradient>
    <linearGradient id="paint3_linear_1154_407" x1="2.77497" y1="37.5905" x2="31.255" y2="35.3971" gradientUnits="userSpaceOnUse">
      <stop stop-color="#0B5CD6"/>
      <stop offset="1" stop-color="#0085FF"/>
    </linearGradient>
    <linearGradient id="paint4_linear_1154_407" x1="36.3049" y1="59.6595" x2="49.4714" y2="58.4055" gradientUnits="userSpaceOnUse">
      <stop stop-color="#0B5CD6"/>
      <stop offset="1" stop-color="#0085FF"/>
    </linearGradient>
  </defs>
</svg>