<svg xmlns="http://www.w3.org/2000/svg" width="72" height="78" viewBox="0 0 72 78" fill="none">
  <path d="M36.0001 77.4975C55.3393 77.4975 71.0168 61.8837 71.0168 42.6232C71.0168 23.3626 55.3393 7.74878 36.0001 7.74878C16.6609 7.74878 0.983398 23.3626 0.983398 42.6232C0.983398 61.8837 16.6609 77.4975 36.0001 77.4975Z" fill="url(#paint0_linear_1154_460)"/>
  <g filter="url(#filter0_bi_1154_460)">
    <path d="M54.5805 0.460754H17.4199C11.105 0.460754 5.98584 5.5591 5.98584 11.8483V39.0601C5.98584 45.3493 11.105 50.4477 17.4199 50.4477H23.5026C25.47 50.4477 27.2992 51.4552 28.3449 53.1148L31.1579 57.5784C33.3988 61.1345 38.6016 61.1345 40.8425 57.5784L43.6554 53.1148C44.7012 51.4552 46.5304 50.4477 48.4977 50.4477H54.5805C60.8954 50.4477 66.0145 45.3493 66.0145 39.0601V11.8483C66.0145 5.5591 60.8954 0.460754 54.5805 0.460754Z" fill="#BCE4F1" fill-opacity="0.5"/>
  </g>
  <path d="M46.3398 26.2995C47.5592 26.2995 48.5476 25.3151 48.5476 24.1006C48.5476 22.8862 47.5592 21.9018 46.3398 21.9018H44.1235L45.2792 17.835C45.6112 16.6665 44.9293 15.4512 43.756 15.1204C42.5831 14.79 41.3625 15.4688 41.0304 16.6374L39.5346 21.9018H35.2449L36.4006 17.835C36.7326 16.6665 36.0507 15.4512 34.8774 15.1204C33.7045 14.79 32.4839 15.4688 32.1518 16.6374L30.6559 21.9018H27.1979C25.9786 21.9018 24.9901 22.8862 24.9901 24.1006C24.9901 25.3151 25.9786 26.2995 27.1979 26.2995H29.4062L28.5918 29.1655H25.1446C23.9253 29.1655 22.9368 30.15 22.9368 31.3644C22.9368 32.5787 23.9253 33.5633 25.1446 33.5633H27.3422L26.1534 37.7466C25.8214 38.9151 26.5033 40.1304 27.6766 40.4612C27.8775 40.5178 28.0798 40.5449 28.2789 40.5449C29.2418 40.5449 30.127 39.9125 30.4022 38.9442L31.9312 33.5633H36.2209L35.0321 37.7466C34.7001 38.9151 35.382 40.1304 36.5553 40.4612C36.7563 40.5178 36.9586 40.5449 37.1577 40.5449C38.1205 40.5449 39.0058 39.9125 39.2809 38.9442L40.81 33.5633H44.2866C45.5059 33.5633 46.4944 32.5788 46.4944 31.3644C46.4944 30.1501 45.5059 29.1655 44.2866 29.1655H42.0596L42.874 26.2995H46.3398ZM37.4704 29.1656H33.1808L33.9952 26.2996H38.2848L37.4704 29.1656Z" fill="white"/>
  <defs>
    <filter id="filter0_bi_1154_460" x="1.98584" y="-3.53925" width="68.0286" height="67.7847" filterUnits="userSpaceOnUse" color-interpolation-filters="sRGB">
      <feFlood flood-opacity="0" result="BackgroundImageFix"/>
      <feGaussianBlur in="BackgroundImageFix" stdDeviation="2"/>
      <feComposite in2="SourceAlpha" operator="in" result="effect1_backgroundBlur_1154_460"/>
      <feBlend mode="normal" in="SourceGraphic" in2="effect1_backgroundBlur_1154_460" result="shape"/>
      <feColorMatrix in="SourceAlpha" type="matrix" values="0 0 0 0 0 0 0 0 0 0 0 0 0 0 0 0 0 0 127 0" result="hardAlpha"/>
      <feOffset dx="0.2" dy="0.1"/>
      <feGaussianBlur stdDeviation="0.5"/>
      <feComposite in2="hardAlpha" operator="arithmetic" k2="-1" k3="1"/>
      <feColorMatrix type="matrix" values="0 0 0 0 1 0 0 0 0 1 0 0 0 0 1 0 0 0 0.6 0"/>
      <feBlend mode="normal" in2="shape" result="effect2_innerShadow_1154_460"/>
    </filter>
    <linearGradient id="paint0_linear_1154_460" x1="5.73143" y1="29.0281" x2="68.0447" y2="23.0692" gradientUnits="userSpaceOnUse">
      <stop stop-color="#0B5CD6"/>
      <stop offset="1" stop-color="#0085FF"/>
    </linearGradient>
  </defs>
</svg>