<svg xmlns="http://www.w3.org/2000/svg" width="26" height="26" viewBox="0 0 26 26" fill="none">
<path d="M5.14224 2.88892C4.8208 2.88892 4.53247 3.08666 4.41668 3.38652L2.85961 7.41883C2.23104 9.04666 2.76926 10.7487 3.94593 11.7771V21.8149C3.94593 22.2444 4.29415 22.5926 4.72371 22.5926H21.3163C21.7459 22.5926 22.0941 22.2444 22.0941 21.8149V11.7771C23.2718 10.7484 23.8108 9.04533 23.1816 7.41652L21.6248 3.38642C21.5089 3.08661 21.2206 2.88892 20.8992 2.88892H5.14224ZM20.5385 12.6077V21.0371H5.50149V12.6079C5.82516 12.6943 6.16736 12.7408 6.52356 12.7408C7.79546 12.7408 8.92987 12.1295 9.64253 11.1833C10.3519 12.129 11.4822 12.7408 12.7553 12.7408H13.2834C14.5566 12.7408 15.6869 12.1289 16.3963 11.1832C17.1091 12.1295 18.2438 12.7408 19.5157 12.7408C19.8722 12.7408 20.2146 12.6943 20.5385 12.6077ZM12.7553 11.1852C11.4667 11.1852 10.422 10.1405 10.422 8.85188C10.422 8.42233 10.0738 8.0741 9.64421 8.0741C9.21466 8.0741 8.86643 8.42233 8.86643 8.85188C8.86643 10.1374 7.81532 11.1852 6.52356 11.1852C4.86272 11.1852 3.71636 9.51845 4.31073 7.97918L5.67566 4.44447H20.3659L21.7305 7.97704C22.3254 9.51695 21.178 11.1852 19.5157 11.1852C18.2238 11.1852 17.1723 10.1373 17.1723 8.85188C17.1723 8.42233 16.824 8.0741 16.3945 8.0741C15.9649 8.0741 15.6167 8.42233 15.6167 8.85188C15.6167 10.1405 14.572 11.1852 13.2834 11.1852H12.7553Z" fill="#3E3BF8"/>
</svg>