<svg xmlns="http://www.w3.org/2000/svg" width="26" height="26" viewBox="0 0 26 26" fill="none">
<path d="M12.7494 8.34951C13.9644 9.56447 13.9644 11.5343 12.7494 12.7493C11.5344 13.9642 9.56459 13.9642 8.34963 12.7493C7.13466 11.5343 7.13466 9.56447 8.34963 8.34951C9.56459 7.13455 11.5344 7.13455 12.7494 8.34951ZM11.6495 9.44945C11.042 8.84197 10.0571 8.84197 9.44957 9.44945C8.84209 10.0569 8.84209 11.0419 9.44957 11.6493C10.0571 12.2568 11.042 12.2568 11.6495 11.6493C12.2569 11.0419 12.2569 10.0569 11.6495 9.44945Z" fill="#3E3BF8"/>
<path d="M3.66675 12.9221L3.66678 3.66675L12.9219 3.6669C13.3345 3.6669 13.7301 3.83079 14.0218 4.12251L23.5628 13.6635C24.1703 14.2709 24.1703 15.2559 23.5628 15.8633L15.8632 23.563C15.2557 24.1704 14.2708 24.1704 13.6633 23.563L4.12236 14.022C3.83063 13.7303 3.66675 13.3346 3.66675 12.9221ZM12.9219 5.22245L5.22233 5.22233L5.2223 12.9221L14.7632 22.463L22.4628 14.7634L12.9219 5.22245Z" fill="#3E3BF8"/>
</svg>