<svg width="42" height="42" viewBox="0 0 42 42" fill="none" xmlns="http://www.w3.org/2000/svg">
<path fill-rule="evenodd" clip-rule="evenodd" d="M1.75444 3.67987C-0.584812 6.0269 -0.584812 9.8322 1.75444 12.1792L14.462 24.9291C14.6135 25.1243 14.7787 25.3123 14.9576 25.4918L16.8708 27.4114C19.2101 29.7584 23.0027 29.7584 25.342 27.4114L40.2357 12.4681C42.5749 10.1211 42.5749 6.31578 40.2357 3.96874L38.3225 2.04915C35.9832 -0.297886 32.1906 -0.297886 29.8513 2.04915L21.139 10.7904L12.1388 1.76028C9.79957 -0.58676 6.0069 -0.586759 3.66765 1.76028L1.75444 3.67987Z" fill="url(#paint0_linear_1133_363)"/>
<g filter="url(#filter0_bi_1133_363)">
<ellipse cx="20.9262" cy="28.1598" rx="13.7885" ry="13.8344" fill="#BCE4F1" fill-opacity="0.5"/>
</g>
<path d="M20.3636 21.6952L18.6181 25.2785L14.6708 25.8443C13.9726 25.9521 13.7041 26.8142 14.2143 27.3261L17.0338 30.1012L16.3625 34.0078C16.2551 34.7083 17.007 35.2471 17.6246 34.9238L21.1423 33.0648L24.6331 34.9238C25.2508 35.2471 26.0026 34.7083 25.8952 34.0078L25.2239 30.1012L28.0434 27.3261C28.5536 26.8142 28.2851 25.9521 27.5869 25.8443L23.6664 25.2785L21.8942 21.6952C21.5988 21.0755 20.6858 21.0486 20.3636 21.6952Z" fill="white"/>
<defs>
<filter id="filter0_bi_1133_363" x="3.1377" y="10.3254" width="35.5771" height="35.6688" filterUnits="userSpaceOnUse" color-interpolation-filters="sRGB">
<feFlood flood-opacity="0" result="BackgroundImageFix"/>
<feGaussianBlur in="BackgroundImageFix" stdDeviation="2"/>
<feComposite in2="SourceAlpha" operator="in" result="effect1_backgroundBlur_1133_363"/>
<feBlend mode="normal" in="SourceGraphic" in2="effect1_backgroundBlur_1133_363" result="shape"/>
<feColorMatrix in="SourceAlpha" type="matrix" values="0 0 0 0 0 0 0 0 0 0 0 0 0 0 0 0 0 0 127 0" result="hardAlpha"/>
<feOffset dx="0.2" dy="0.1"/>
<feGaussianBlur stdDeviation="0.5"/>
<feComposite in2="hardAlpha" operator="arithmetic" k2="-1" k3="1"/>
<feColorMatrix type="matrix" values="0 0 0 0 1 0 0 0 0 1 0 0 0 0 1 0 0 0 0.6 0"/>
<feBlend mode="normal" in2="shape" result="effect2_innerShadow_1133_363"/>
</filter>
<linearGradient id="paint0_linear_1133_363" x1="2.84679" y1="8.89984" x2="39.8543" y2="3.82658" gradientUnits="userSpaceOnUse">
<stop stop-color="#0B5CD6"/>
<stop offset="1" stop-color="#0085FF"/>
</linearGradient>
</defs>
</svg>
