<svg width="64" height="64" viewBox="0 10 64 64" fill="none" xmlns="http://www.w3.org/2000/svg">
<path d="M34.4 46.7L17.7431 30.1247C16.5296 28.9112 15.8599 27.2923 15.8599 25.5689C15.8599 23.8518 16.5245 22.2392 17.7306 21.0244C17.4511 19.0819 18.0579 17.0351 19.5483 15.5434C19.5508 15.5409 19.5534 15.5383 19.5559 15.5345C19.2865 13.5984 19.8933 11.5628 21.3787 10.0774C21.8822 9.57384 22.698 9.57505 23.2016 10.0761L34.8309 21.6777C35.2086 22.0566 46.619 32.7103 46.4 33.2C46.1784 33.691 45.9387 35.2377 45.4 35.2C42.774 35.0414 47.2278 39.8735 45.4 41.7C43.5721 43.5253 41.2338 40.0941 41.4 42.7C41.4327 43.2363 40.3909 45.4797 39.9 45.7C39.4258 45.9159 34.7863 47.0884 34.4 46.7Z" fill="url(#paint0_linear_1125_5088)"/>
<path d="M40.531 50.2412C38.8064 50.2412 37.1875 49.5715 35.9714 48.3555L31.6435 44.0515C31.2633 43.6726 31.1576 43.0985 31.3767 42.6088C31.5982 42.1192 32.0967 41.8308 32.633 41.851C35.2162 42.0197 37.7817 41.063 39.607 39.2364C41.4349 37.4098 42.3891 34.8682 42.2229 32.2624C42.1902 31.7261 42.4897 31.2263 42.9782 31.006C43.4692 30.7832 44.0224 30.3211 44.4 30.7L56.0225 42.8985C56.526 43.402 56.526 44.2178 56.0225 44.72C54.5395 46.2042 52.5203 46.8185 50.564 46.5428C50.5615 46.5453 50.559 46.5479 50.5565 46.5504C49.066 48.0396 47.0342 48.6502 45.0754 48.3694C43.862 49.5766 42.2507 50.2412 40.531 50.2412Z" fill="url(#paint1_linear_1125_5088)"/>
<g filter="url(#filter0_bi_1125_5088)">
<path d="M25.0418 41.0592C20.5001 36.5174 20.5464 29.1583 25.0418 24.6701C29.4981 20.209 36.8598 20.0974 41.4296 24.6701C46.5236 29.7643 45.3491 37.1438 41.4296 41.0592C36.9872 45.5017 29.633 45.6476 25.0418 41.0592Z" fill="#BCE4F1" fill-opacity="0.5"/>
</g>
<path d="M12.7775 53.3224C12.274 52.8189 12.274 52.0031 12.7775 51.4996L20.6838 43.5933C21.1873 43.0898 22.0031 43.0898 22.5067 43.5933C23.0102 44.0968 23.0102 44.9126 22.5067 45.4162L14.6004 53.3224C14.0968 53.8259 13.281 53.8259 12.7775 53.3224Z" fill="url(#paint2_linear_1125_5088)"/>
<path d="M20.5119 53.3223C20.0084 52.8188 20.0084 52.003 20.5119 51.4995L25.8401 46.1714C26.3436 45.6679 27.1594 45.6679 27.6629 46.1714C28.1664 46.6749 28.1664 47.4907 27.6629 47.9942L22.3347 53.3223C21.8311 53.8258 21.0154 53.8258 20.5119 53.3223Z" fill="url(#paint3_linear_1125_5088)"/>
<path d="M12.7775 45.588C12.274 45.0845 12.274 44.2687 12.7775 43.7652L18.1057 38.437C18.6092 37.9335 19.425 37.9335 19.9285 38.437C20.432 38.9406 20.432 39.7564 19.9285 40.2599L14.6004 45.588C14.0968 46.0915 13.281 46.0915 12.7775 45.588Z" fill="url(#paint4_linear_1125_5088)"/>
<path d="M38.4915 27.6073C38.0817 27.1975 37.4178 27.1975 37.008 27.6073L36.1161 28.4998C34.9484 27.9492 33.5203 28.1281 32.5576 29.0908C31.9634 29.685 31.6356 30.4759 31.6356 31.317C31.6356 32.1571 31.9634 32.948 32.5576 33.5422C32.9674 33.951 32.9674 34.6168 32.5576 35.0256C32.1479 35.4354 31.4839 35.4354 31.0742 35.0256C30.8754 34.8269 30.7668 34.5636 30.7668 34.2839C30.7668 33.7041 30.2975 33.2349 29.7177 33.2349C29.1378 33.2349 28.6686 33.7041 28.6686 34.2839C28.6686 34.7599 28.7845 35.215 28.9837 35.6326L28.1071 36.5092C27.6974 36.919 27.6974 37.5829 28.1071 37.9927C28.5169 38.4024 29.1808 38.4025 29.5906 37.9927L30.4824 37.1009C31.8399 37.7407 33.1873 37.3643 34.041 36.5093C35.1659 35.3844 35.2085 33.6391 34.2716 32.4064C34.2204 32.2799 34.1436 32.1614 34.041 32.0589C33.6318 31.6498 33.6297 30.9867 34.041 30.5754C34.4507 30.1677 35.1147 30.1666 35.5244 30.5765C35.7232 30.7731 35.8318 31.0365 35.8318 31.3172C35.8318 31.8971 36.301 32.3663 36.8809 32.3663C37.4608 32.3663 37.93 31.8971 37.93 31.3172C37.93 30.8403 37.8142 30.3851 37.6152 29.9678L38.4914 29.091C38.9013 28.6809 38.9013 28.0161 38.4915 27.6073Z" fill="white"/>
<defs>
<filter id="filter0_bi_1125_5088" x="17.6528" y="17.2823" width="31.1709" height="31.1637" filterUnits="userSpaceOnUse" color-interpolation-filters="sRGB">
<feFlood flood-opacity="0" result="BackgroundImageFix"/>
<feGaussianBlur in="BackgroundImageFix" stdDeviation="2"/>
<feComposite in2="SourceAlpha" operator="in" result="effect1_backgroundBlur_1125_5088"/>
<feBlend mode="normal" in="SourceGraphic" in2="effect1_backgroundBlur_1125_5088" result="shape"/>
<feColorMatrix in="SourceAlpha" type="matrix" values="0 0 0 0 0 0 0 0 0 0 0 0 0 0 0 0 0 0 127 0" result="hardAlpha"/>
<feOffset dx="0.2" dy="0.1"/>
<feGaussianBlur stdDeviation="0.5"/>
<feComposite in2="hardAlpha" operator="arithmetic" k2="-1" k3="1"/>
<feColorMatrix type="matrix" values="0 0 0 0 1 0 0 0 0 1 0 0 0 0 1 0 0 0 0.6 0"/>
<feBlend mode="normal" in2="shape" result="effect2_innerShadow_1125_5088"/>
</filter>
<linearGradient id="paint0_linear_1125_5088" x1="18.6084" y1="22.0685" x2="54.6823" y2="18.633" gradientUnits="userSpaceOnUse">
<stop stop-color="#0B5CD6"/>
<stop offset="1" stop-color="#0085FF"/>
</linearGradient>
<linearGradient id="paint1_linear_1125_5088" x1="18.6084" y1="22.0685" x2="54.6823" y2="18.633" gradientUnits="userSpaceOnUse">
<stop stop-color="#0B5CD6"/>
<stop offset="1" stop-color="#0085FF"/>
</linearGradient>
<linearGradient id="paint2_linear_1125_5088" x1="13.1107" y1="46.4143" x2="22.44" y2="45.5258" gradientUnits="userSpaceOnUse">
<stop stop-color="#0B5CD6"/>
<stop offset="1" stop-color="#0085FF"/>
</linearGradient>
<linearGradient id="paint3_linear_1125_5088" x1="20.6703" y1="48.2058" x2="27.7055" y2="47.5358" gradientUnits="userSpaceOnUse">
<stop stop-color="#0B5CD6"/>
<stop offset="1" stop-color="#0085FF"/>
</linearGradient>
<linearGradient id="paint4_linear_1125_5088" x1="12.9359" y1="40.4715" x2="19.9711" y2="39.8015" gradientUnits="userSpaceOnUse">
<stop stop-color="#0B5CD6"/>
<stop offset="1" stop-color="#0085FF"/>
</linearGradient>
</defs>
</svg>
