<svg width="36" height="39" viewBox="0 0 36 39" fill="none" xmlns="http://www.w3.org/2000/svg">
<rect x="36" y="3.46664" width="35.5333" height="36" rx="5" transform="rotate(90 36 3.46664)" fill="url(#paint0_linear_1125_5131)"/>
<rect x="5.64551" y="24.8182" width="15.9955" height="2.65909" rx="1.32955" fill="white"/>
<rect x="5.64551" y="30.1364" width="8.46818" height="2.65909" rx="1.32955" fill="white"/>
<g filter="url(#filter0_bi_1125_5131)">
<path d="M15.6924 2C15.6924 0.895429 16.5878 0 17.6924 0H28.4616C29.5662 0 30.4616 0.895431 30.4616 2V15.934C30.4616 17.5819 28.5803 18.5227 27.2618 17.5341L24.2768 15.2959C23.5658 14.7628 22.5882 14.7628 21.8772 15.2959L18.8922 17.5341C17.5737 18.5227 15.6924 17.5819 15.6924 15.934V2Z" fill="#BCE4F1" fill-opacity="0.5"/>
</g>
<defs>
<filter id="filter0_bi_1125_5131" x="11.6924" y="-4" width="22.769" height="25.9376" filterUnits="userSpaceOnUse" color-interpolation-filters="sRGB">
<feFlood flood-opacity="0" result="BackgroundImageFix"/>
<feGaussianBlur in="BackgroundImageFix" stdDeviation="2"/>
<feComposite in2="SourceAlpha" operator="in" result="effect1_backgroundBlur_1125_5131"/>
<feBlend mode="normal" in="SourceGraphic" in2="effect1_backgroundBlur_1125_5131" result="shape"/>
<feColorMatrix in="SourceAlpha" type="matrix" values="0 0 0 0 0 0 0 0 0 0 0 0 0 0 0 0 0 0 127 0" result="hardAlpha"/>
<feOffset dx="0.2" dy="0.1"/>
<feGaussianBlur stdDeviation="0.5"/>
<feComposite in2="hardAlpha" operator="arithmetic" k2="-1" k3="1"/>
<feColorMatrix type="matrix" values="0 0 0 0 1 0 0 0 0 1 0 0 0 0 1 0 0 0 0.6 0"/>
<feBlend mode="normal" in2="shape" result="effect2_innerShadow_1125_5131"/>
</filter>
<linearGradient id="paint0_linear_1125_5131" x1="38.409" y1="14.4497" x2="70.035" y2="11.4767" gradientUnits="userSpaceOnUse">
<stop stop-color="#0B5CD6"/>
<stop offset="1" stop-color="#0085FF"/>
</linearGradient>
</defs>
</svg>
