<svg width="40" height="44" viewBox="0 0 40 44" fill="none" xmlns="http://www.w3.org/2000/svg">
<path d="M0 18.7763L18.1824 1.91524C19.3435 0.838516 21.1415 0.849627 22.2892 1.94062L40 18.7763L18.7759 39.5044L0 18.7763Z" fill="url(#paint0_linear_1133_354)"/>
<g filter="url(#filter0_bi_1133_354)">
<path d="M2.04248 8.47629C2.04248 7.37172 2.93791 6.47629 4.04248 6.47629H35.9579C37.0625 6.47629 37.9579 7.37172 37.9579 8.47629V32.7628C37.9579 33.8674 37.0625 34.7628 35.9579 34.7628H4.04248C2.93791 34.7628 2.04248 33.8674 2.04248 32.7628V8.47629Z" fill="#BCE4F1" fill-opacity="0.5"/>
</g>
<rect x="9.19141" y="12.7981" width="21.5132" height="3.03448" rx="1.51724" fill="white"/>
<rect x="14.2534" y="20.3843" width="11.3893" height="3.03448" rx="1.51724" fill="white"/>
<path d="M39.9999 18.7763L16.5806 32.9344L37.1096 42.6343C38.4528 43.269 39.9999 42.2901 39.9999 40.8055V18.7763Z" fill="url(#paint1_linear_1133_354)"/>
<path d="M0 18.7763L23.4194 32.9344L2.85442 42.6513C1.52768 43.2782 0 42.3104 0 40.843V18.7763Z" fill="url(#paint2_linear_1133_354)"/>
<path d="M25.3604 30.3591C23.8428 29.3601 22.0652 28.8276 20.2478 28.8276C18.4304 28.8276 16.6529 29.3601 15.1353 30.3591L1.58975 39.2762C-0.0878243 40.3806 0.694789 42.9885 2.70377 42.9885H37.792C39.801 42.9885 40.5836 40.3806 38.906 39.2762L25.3604 30.3591Z" fill="url(#paint3_linear_1133_354)"/>
<defs>
<filter id="filter0_bi_1133_354" x="-1.95752" y="2.47629" width="43.9155" height="36.2866" filterUnits="userSpaceOnUse" color-interpolation-filters="sRGB">
<feFlood flood-opacity="0" result="BackgroundImageFix"/>
<feGaussianBlur in="BackgroundImageFix" stdDeviation="2"/>
<feComposite in2="SourceAlpha" operator="in" result="effect1_backgroundBlur_1133_354"/>
<feBlend mode="normal" in="SourceGraphic" in2="effect1_backgroundBlur_1133_354" result="shape"/>
<feColorMatrix in="SourceAlpha" type="matrix" values="0 0 0 0 0 0 0 0 0 0 0 0 0 0 0 0 0 0 127 0" result="hardAlpha"/>
<feOffset dx="0.2" dy="0.1"/>
<feGaussianBlur stdDeviation="0.5"/>
<feComposite in2="hardAlpha" operator="arithmetic" k2="-1" k3="1"/>
<feColorMatrix type="matrix" values="0 0 0 0 1 0 0 0 0 1 0 0 0 0 1 0 0 0 0.6 0"/>
<feBlend mode="normal" in2="shape" result="effect2_innerShadow_1133_354"/>
</filter>
<linearGradient id="paint0_linear_1133_354" x1="2.71186" y1="12.0522" x2="38.297" y2="8.62061" gradientUnits="userSpaceOnUse">
<stop stop-color="#0B5CD6"/>
<stop offset="1" stop-color="#0085FF"/>
</linearGradient>
<linearGradient id="paint1_linear_1133_354" x1="18.1683" y1="26.115" x2="39.0174" y2="24.1818" gradientUnits="userSpaceOnUse">
<stop stop-color="#0B5CD6"/>
<stop offset="1" stop-color="#0085FF"/>
</linearGradient>
<linearGradient id="paint2_linear_1133_354" x1="1.58775" y1="26.4717" x2="22.4529" y2="24.6267" gradientUnits="userSpaceOnUse">
<stop stop-color="#0B5CD6"/>
<stop offset="1" stop-color="#0085FF"/>
</linearGradient>
<linearGradient id="paint3_linear_1133_354" x1="3.3292" y1="33.1479" x2="36.1995" y2="24.4942" gradientUnits="userSpaceOnUse">
<stop stop-color="#0B5CD6"/>
<stop offset="1" stop-color="#0085FF"/>
</linearGradient>
</defs>
</svg>
