<svg width="28" height="48" viewBox="0 0 28 48" fill="none" xmlns="http://www.w3.org/2000/svg">
<path d="M2.88721 10.7541C2.88721 8.64653 4.71225 6.93802 6.96354 6.93802L20.2116 6.93802C22.4629 6.93802 24.288 8.64653 24.288 10.7541L24.288 37.4666C24.288 39.5741 22.4629 41.2826 20.2116 41.2826H6.96354C4.71225 41.2826 2.88721 39.5741 2.88721 37.4666L2.88721 10.7541Z" fill="url(#paint0_linear_1125_5155)"/>
<g filter="url(#filter0_bi_1125_5155)">
<path d="M8.08398 5.68696C8.08398 2.54614 10.5706 0 13.638 0C16.7054 0 19.192 2.54614 19.192 5.68696L19.192 42.313C19.192 45.4539 16.7054 48 13.638 48C10.5706 48 8.08398 45.4539 8.08398 42.313L8.08398 5.68696Z" fill="#BCE4F1" fill-opacity="0.5"/>
</g>
<path d="M13.1818 10.1411C12.9249 10.3649 12.7686 10.6778 12.7416 11.022C12.7146 11.3662 12.82 11.7005 13.0375 11.9621C13.0428 11.9688 13.5781 12.6346 13.8432 13.544C14.1704 14.6674 13.9297 15.6228 13.1073 16.465C11.6109 17.9971 11.1372 19.8951 11.7373 21.9536C12.1524 23.3775 12.9491 24.3626 13.041 24.4731L13.0718 24.5086C13.0776 24.5151 13.656 25.1756 13.9197 26.0752C13.9539 26.1919 13.9798 26.307 14.0002 26.4209L14.0002 9.83421C13.7104 9.834 13.4192 9.93425 13.1818 10.1411Z" fill="white"/>
<path d="M11.4301 32.8631C11.4301 33.4155 11.5179 33.9785 11.6913 34.5364C12.1332 35.9585 12.9816 36.9167 13.0769 37.0212C13.307 37.2736 13.6194 37.4192 13.9565 37.4311C13.971 37.4317 13.9855 37.4318 14.0001 37.4319L14.0001 33.3563C13.939 33.0185 13.939 32.6928 14.0001 32.3774L14.0001 27.3926C13.8929 27.9474 13.5967 28.4705 13.1072 28.9716C12.01 30.0951 11.43 31.4408 11.4301 32.8631Z" fill="white"/>
<path d="M16.3088 25.235C15.9049 23.935 15.1758 23.0376 14.9558 22.787C14.8846 22.6957 14.3813 22.0285 14.1412 21.1589C13.8377 20.0592 14.0836 19.1217 14.8927 18.2932C16.3892 16.7609 16.8629 14.863 16.2628 12.8044C15.8477 11.3806 15.0509 10.3954 14.9615 10.2878C14.7124 9.98805 14.3573 9.83452 14.0001 9.83421L14.0001 26.421C14.06 26.7561 14.0606 27.0795 14.0001 27.3926L14.0001 32.3774C14.1075 31.8231 14.4039 31.3004 14.8927 30.7999C16.4317 29.2242 16.9345 27.2479 16.3088 25.235Z" fill="white"/>
<path d="M14.0976 33.7525C14.056 33.6186 14.0237 33.4866 14.0002 33.3563L14.0002 37.4319C14.0005 37.4319 14.0008 37.4319 14.0011 37.4319C14.3218 37.4319 14.6259 37.3094 14.8615 37.0843C15.1081 36.8487 15.2503 36.5289 15.262 36.1837C15.2737 35.8386 15.1533 35.5095 14.9241 35.2582C14.9186 35.2519 14.3702 34.6298 14.0976 33.7525Z" fill="white"/>
<defs>
<filter id="filter0_bi_1125_5155" x="4.08398" y="-4" width="19.1079" height="56" filterUnits="userSpaceOnUse" color-interpolation-filters="sRGB">
<feFlood flood-opacity="0" result="BackgroundImageFix"/>
<feGaussianBlur in="BackgroundImageFix" stdDeviation="2"/>
<feComposite in2="SourceAlpha" operator="in" result="effect1_backgroundBlur_1125_5155"/>
<feBlend mode="normal" in="SourceGraphic" in2="effect1_backgroundBlur_1125_5155" result="shape"/>
<feColorMatrix in="SourceAlpha" type="matrix" values="0 0 0 0 0 0 0 0 0 0 0 0 0 0 0 0 0 0 127 0" result="hardAlpha"/>
<feOffset dx="0.2" dy="0.1"/>
<feGaussianBlur stdDeviation="0.5"/>
<feComposite in2="hardAlpha" operator="arithmetic" k2="-1" k3="1"/>
<feColorMatrix type="matrix" values="0 0 0 0 1 0 0 0 0 1 0 0 0 0 1 0 0 0 0.6 0"/>
<feBlend mode="normal" in2="shape" result="effect2_innerShadow_1125_5155"/>
</filter>
<linearGradient id="paint0_linear_1125_5155" x1="4.33811" y1="17.416" x2="23.4865" y2="16.2797" gradientUnits="userSpaceOnUse">
<stop stop-color="#0B5CD6"/>
<stop offset="1" stop-color="#0085FF"/>
</linearGradient>
</defs>
</svg>
