<svg xmlns="http://www.w3.org/2000/svg" width="16" height="16" viewBox="0 0 16 16" fill="none">
  <g clip-path="url(#clip0_129_31896)">
    <path d="M8.734 7.94821L7.34471 9.71964L6.61079 8.78393C6.59742 8.76686 6.58035 8.75305 6.56086 8.74355C6.54136 8.73405 6.51997 8.72912 6.49828 8.72912C6.4766 8.72912 6.45521 8.73405 6.43571 8.74355C6.41622 8.75305 6.39915 8.76686 6.38578 8.78393L4.60364 11.0554C4.58715 11.0764 4.57692 11.1017 4.57412 11.1283C4.57132 11.1549 4.57605 11.1817 4.58779 11.2057C4.59952 11.2298 4.61778 11.25 4.64048 11.2642C4.66318 11.2783 4.6894 11.2858 4.71614 11.2857H11.2858C11.4054 11.2857 11.4715 11.1482 11.3983 11.0554L8.96078 7.94821C8.94724 7.93111 8.93001 7.9173 8.91037 7.9078C8.89074 7.8983 8.86921 7.89337 8.84739 7.89337C8.82558 7.89337 8.80405 7.8983 8.78441 7.9078C8.76478 7.9173 8.74754 7.93111 8.734 7.94821ZM5.28578 6.75C5.28578 6.93944 5.36104 7.12112 5.49499 7.25508C5.62895 7.38903 5.81063 7.46429 6.00007 7.46429C6.18951 7.46429 6.37119 7.38903 6.50515 7.25508C6.6391 7.12112 6.71436 6.93944 6.71436 6.75C6.71436 6.56056 6.6391 6.37888 6.50515 6.24492C6.37119 6.11097 6.18951 6.03571 6.00007 6.03571C5.81063 6.03571 5.62895 6.11097 5.49499 6.24492C5.36104 6.37888 5.28578 6.56056 5.28578 6.75ZM14.1179 4.01071L10.2751 0.167857C10.1679 0.0607143 10.0233 0 9.8715 0H2.28578C1.96971 0 1.71436 0.255357 1.71436 0.571429V15.4286C1.71436 15.7446 1.96971 16 2.28578 16H13.7144C14.0304 16 14.2858 15.7446 14.2858 15.4286V4.41607C14.2858 4.26429 14.2251 4.11786 14.1179 4.01071ZM12.9679 4.67857H9.60721V1.31786L12.9679 4.67857ZM13.0001 14.7143H3.00007V1.28571H8.39293V5.14286C8.39293 5.34177 8.47195 5.53254 8.6126 5.67319C8.75325 5.81384 8.94402 5.89286 9.14293 5.89286H13.0001V14.7143Z" fill="#828282" />
  </g>
  <defs>
    <clipPath id="clip0_129_31896">
      <rect width="16" height="16" fill="white" />
    </clipPath>
  </defs>
</svg>