<svg viewBox="0 0 24 24" fill="none" xmlns="http://www.w3.org/2000/svg">
<g clip-path="url(#clip0_0_3)">
<circle cx="12" cy="12" r="11.9" fill="#161616" stroke="white" stroke-width="0.2"/>
<path d="M16.5858 14.4645L18 13L19.4142 14.4645C20.1953 15.2733 20.1953 16.5846 19.4142 17.3933C18.6332 18.2022 17.3668 18.2022 16.5858 17.3933C15.8047 16.5846 15.8047 15.2733 16.5858 14.4645Z" fill="#3284FF"/>
<path d="M6.6 12.9091H11.4C11.8418 12.9091 12.2 13.3161 12.2 13.8182V16.5455H13V22H9.8V16.5455H10.6V14.7273H5.8C5.35818 14.7273 5 14.3203 5 13.8182V12H6.6V12.9091Z" fill="white"/>
<path d="M5.77778 6V9H18.2222V6H5.77778ZM4.88889 4H19.1111C19.602 4 20 4.44772 20 5V10C20 10.5523 19.602 11 19.1111 11H4.88889C4.39797 11 4 10.5523 4 10V5C4 4.44772 4.39797 4 4.88889 4Z" fill="white"/>
</g>
<defs>
<clipPath id="clip0_0_3">
<rect width="24" height="24" fill="white"/>
</clipPath>
</defs>
</svg>
