<svg width="88" height="24" viewBox="0 0 88 24" fill="none" xmlns="http://www.w3.org/2000/svg">
<g clip-path="url(#clip0_1667_1269)">
<path d="M12.2098 0H1.24417C0.540939 0 -0.0292969 0.570236 -0.0292969 1.27347V12.2391L12.2098 0Z" fill="white"/>
<path d="M16.5028 12.6606L11.2295 17.934V17.9431H19.1144L23.8312 13.2263C24.0398 13.0177 23.8922 12.6606 23.597 12.6606H16.5028Z" fill="white"/>
<path d="M16.5028 23.9597L11.2295 18.6864V18.6772H19.1144L23.8312 23.394C24.0398 23.6026 23.8922 23.9597 23.597 23.9597H16.5028Z" fill="white"/>
<path d="M19.1198 5.73417L23.7382 1.11581C24.1499 0.704075 23.8584 -0.000976562 23.2754 -0.000976562H13.463L13.4238 0.038193L19.1198 5.73417Z" fill="white"/>
<path d="M12.7972 0.664977L7.10254 6.35962L12.7985 12.0556L18.4931 6.36091L12.7972 0.664977Z" fill="white"/>
<path d="M12.1709 12.6819L6.49951 7.0105V18.3524L12.1709 12.6819Z" fill="white"/>
<path d="M5.61567 7.84668L-0.0292969 13.4916V23.3041C-0.0292969 23.8871 0.674844 24.1786 1.08749 23.7668L5.61567 19.2386V7.84759V7.84668Z" fill="white"/>
<path d="M48.4106 10.2809C47.1317 9.74342 45.9329 9.17136 44.8143 8.56469C43.6957 7.95802 42.7337 7.32766 41.9276 6.67544C41.7481 6.53516 41.5441 6.46411 41.3136 6.46411H38.6091C38.4041 6.46411 38.2065 6.5215 38.0143 6.63719C37.311 7.2639 36.3965 7.89061 35.2715 8.51641C34.1465 9.14313 32.9058 9.72429 31.5504 10.2617C31.1541 10.4148 31.0321 10.6899 31.186 11.0861L31.3008 11.4314C31.4538 11.8276 31.7353 11.9488 32.1443 11.7957C32.475 11.6609 32.8075 11.5197 33.1418 11.3712V16.456C33.1418 16.8522 33.2502 17.1556 33.4679 17.3669C33.6856 17.5782 33.9916 17.683 34.3888 17.683H45.5512C45.9475 17.683 46.2545 17.5773 46.4722 17.3669C46.6899 17.1556 46.7983 16.8522 46.7983 16.456V11.3512C47.1317 11.496 47.4705 11.6381 47.8149 11.7766C48.1984 11.9296 48.4735 11.8149 48.6392 11.4314L48.754 11.0861C48.9071 10.7026 48.7923 10.4339 48.4088 10.2809H48.4106ZM38.8787 8.11379H41.0649C41.8001 8.67036 42.6226 9.20689 43.5299 9.7252H36.4238C37.3302 9.2078 38.1491 8.67127 38.8787 8.11379ZM35.1002 13.3498H44.8434V14.0785H35.1002V13.3498ZM44.8434 11.9497H35.1002V11.2209H44.8434V11.9497ZM35.1002 16.2073V15.4786H44.8434V16.2073H35.1002Z" fill="white"/>
<path d="M36.8662 4.75702C36.3415 5.10226 35.6966 5.46025 34.9287 5.831C34.1617 6.20174 33.3564 6.55973 32.512 6.90497C32.1285 7.0325 32.0065 7.28847 32.1477 7.67197L32.2624 8.01721C32.39 8.38795 32.6459 8.50364 33.0294 8.36244C34.7429 7.71023 36.296 6.95598 37.6897 6.09972C38.0349 5.90752 38.1051 5.63971 37.901 5.29447L37.7088 4.98749C37.4911 4.655 37.2105 4.57848 36.8653 4.75702H36.8662Z" fill="white"/>
<path d="M32.1652 6.2146H32.5487C33.0215 6.2146 33.2583 5.97229 33.2583 5.48586V4.4884H46.6835V5.48586C46.6835 5.97229 46.9194 6.2146 47.3931 6.2146H47.7766C48.2493 6.2146 48.4862 5.97229 48.4862 5.48586V4.12403C48.4862 3.71503 48.3805 3.40441 48.1701 3.19399C47.9588 2.98265 47.6554 2.8779 47.2592 2.8779H40.0675V2.16829H46.8948C47.2528 2.16829 47.4323 1.98975 47.4323 1.63085V1.32387C47.4323 0.965876 47.2528 0.786424 46.8948 0.786424H40.0638C40.0328 0.32641 39.7714 0.0959473 39.2804 0.0959473H38.8587C38.3467 0.0959473 38.0917 0.358292 38.0917 0.882071V2.87699H32.6835C32.2873 2.87699 31.9831 2.98265 31.7726 3.19307C31.5613 3.40441 31.4565 3.71412 31.4565 4.12312V5.48495C31.4565 5.97138 31.6934 6.21368 32.1661 6.21368L32.1652 6.2146Z" fill="white"/>
<path d="M47.4335 6.90497C45.9113 6.32927 44.4612 5.61329 43.0802 4.75702C42.735 4.57848 42.4535 4.655 42.2367 4.98749L42.0454 5.29447C41.8404 5.63971 41.9115 5.90843 42.2567 6.09972C42.8197 6.47046 43.5156 6.85396 44.3473 7.25021C45.178 7.64646 46.0352 8.01721 46.917 8.36244C47.3005 8.50364 47.5565 8.38795 47.684 8.01721L47.7988 7.67197C47.939 7.28847 47.8179 7.0325 47.4344 6.90497H47.4335Z" fill="white"/>
<path d="M67.4901 5.06411C66.3014 4.4374 65.1882 3.72779 64.1525 2.93529C63.1168 2.14279 62.1959 1.27924 61.3906 0.346459C61.1857 0.115997 60.9306 0.0012207 60.6236 0.0012207H57.6704C57.3634 0.0012207 57.1075 0.115997 56.9034 0.346459C56.1619 1.22914 55.2729 2.06992 54.2372 2.8688C53.2014 3.66767 52.0573 4.40005 50.8039 5.06502C50.3694 5.25723 50.2537 5.57058 50.4587 6.00509L50.6509 6.38859C50.8549 6.81034 51.181 6.91965 51.6292 6.7147C51.9198 6.57077 52.214 6.41409 52.5119 6.24466V16.3613C52.5119 16.7958 52.6303 17.1283 52.8671 17.3588C53.104 17.5893 53.4392 17.704 53.8737 17.704H56.0408C56.5135 17.704 56.7504 17.4672 56.7504 16.9944V16.6109C56.7504 16.1382 56.5135 15.9013 56.0408 15.9013H54.4685V12.6411H57.3088C57.2623 12.6794 57.2177 12.724 57.1731 12.775L56.9426 13.1203C56.6229 13.4783 56.6611 13.8044 57.0574 14.0986C58.3235 15.0451 59.7546 15.8312 61.3533 16.4579C62.951 17.0846 64.6708 17.5382 66.5127 17.8197C66.9727 17.8962 67.2414 17.6858 67.318 17.1866L67.3562 16.784C67.42 16.3112 67.215 16.0361 66.7423 15.9596C65.5936 15.8248 64.4595 15.5852 63.34 15.2427C63.3919 15.2309 63.4447 15.2145 63.5003 15.1926L66.6074 14.0039C67.0292 13.8381 67.1567 13.5439 66.9909 13.1221L66.8762 12.7769C66.6967 12.3424 66.4034 12.2148 65.9935 12.3934L62.8863 13.563C62.4518 13.7424 62.317 14.0421 62.4837 14.4648L62.5985 14.81C62.6386 14.9048 62.685 14.9831 62.737 15.0478C62.5757 14.9922 62.4136 14.9367 62.2533 14.8765C60.783 14.3336 59.4403 13.5949 58.2261 12.6612C58.2161 12.6539 58.2069 12.6484 58.1969 12.6421H64.4203C64.8548 12.6421 65.1901 12.5273 65.4269 12.2968C65.6637 12.0664 65.7822 11.7348 65.7822 11.2994V6.23738C66.0718 6.40225 66.3661 6.56166 66.6639 6.71561C67.1112 6.92057 67.4373 6.81126 67.6423 6.3895L67.8335 6.006C68.0376 5.58425 67.9228 5.27089 67.4883 5.06593L67.4901 5.06411ZM63.8273 6.36855V7.7495H54.4676V6.36855H63.8273ZM54.4676 10.8375V9.47569H63.8273V10.8375H54.4676ZM60.068 4.56584V3.72233C60.068 3.24956 59.8311 3.01272 59.3583 3.01272H58.9366C58.4638 3.01272 58.227 3.24956 58.227 3.72233V4.56584H55.0351C56.1501 3.72142 57.1512 2.81414 58.0357 1.84219H60.2602C61.1164 2.78863 62.0884 3.67678 63.1751 4.50845C63.2006 4.52758 63.227 4.54671 63.2525 4.56584H60.0689H60.068Z" fill="white"/>
<path d="M86.3475 1.11353H76.5278C76.0414 1.11353 75.7991 1.35674 75.7991 1.84226V2.26402C75.7991 2.75045 76.0414 2.99275 76.5278 2.99275H79.6605C79.2852 4.23343 78.7332 5.49596 78.0044 6.78036C77.1728 8.24421 76.1562 9.63518 74.9547 10.9515C74.788 11.1309 74.7051 11.3095 74.7051 11.4889C74.7051 11.6684 74.788 11.8469 74.9547 12.0263L75.2617 12.2951C75.6069 12.6531 75.9585 12.6467 76.3165 12.2759C76.7173 11.8414 77.0999 11.3914 77.467 10.9278V16.2266C77.467 17.1339 77.9206 17.5884 78.8288 17.5884H85.3501C86.271 17.5884 86.731 17.1348 86.731 16.2266V9.07314C86.731 8.16587 86.271 7.71132 85.3501 7.71132H79.6231C80.4721 6.19919 81.148 4.62785 81.6481 2.99366H86.3466C86.8322 2.99366 87.0754 2.75136 87.0754 2.26493V1.84317C87.0754 1.35765 86.8322 1.11444 86.3466 1.11444L86.3475 1.11353ZM84.7944 15.7092H79.3863V9.59146H84.7944V15.7092Z" fill="white"/>
<path d="M74.7439 10.6453C75.2422 10.6453 75.4918 10.3957 75.4918 9.89746V9.47571C75.4918 8.99019 75.2422 8.74697 74.7439 8.74697H73.7464V5.29459H74.9161C75.4016 5.29459 75.6448 5.05228 75.6448 4.56585V4.14409C75.6448 3.64582 75.4016 3.39623 74.9161 3.39623H73.7464V1.01691C73.7464 0.518635 73.4969 0.269043 72.9986 0.269043H72.5768C72.0649 0.269043 71.8098 0.518635 71.8098 1.01691V3.39532H70.3715C69.8596 3.39532 69.6045 3.65129 69.6045 4.16231V4.54581C69.6045 5.04408 69.8605 5.29368 70.3715 5.29368H71.8098V8.74606H70.3715C69.8596 8.74606 69.6045 8.99565 69.6045 9.49393V9.87742C69.6045 10.3894 69.8605 10.6444 70.3715 10.6444H71.8098V15.669H70.8315C70.3196 15.669 70.0645 15.9314 70.0645 16.4552V16.8769C70.0645 17.388 70.3205 17.6439 70.8315 17.6439H72.3464C73.2791 17.6439 73.7464 17.1766 73.7464 16.2438V10.6435H74.7439V10.6453Z" fill="white"/>
<path d="M36.272 21.9543C36.3722 21.8714 36.456 21.774 36.5253 21.6628C36.5945 21.5517 36.6473 21.4269 36.6847 21.2894C36.722 21.1518 36.7402 20.9997 36.7402 20.833C36.7402 20.5087 36.6728 20.2345 36.5389 20.0095C36.405 19.7845 36.2128 19.6078 35.9632 19.4794C35.7145 19.3491 35.4085 19.2844 35.0432 19.2844H33.1221V23.9347H34.2461V22.3424H34.8228L35.6717 23.9347H36.8978L35.9332 22.1638C36.0589 22.1083 36.1718 22.0381 36.2711 21.9552L36.272 21.9543ZM35.3866 21.3003C35.2609 21.405 35.066 21.457 34.8009 21.457H34.2471V20.1899H34.8009C35.3174 20.1899 35.5752 20.4039 35.5752 20.8321C35.5752 21.0398 35.5123 21.1955 35.3866 21.3003Z" fill="white"/>
<path d="M41.9132 20.599C41.6554 20.467 41.3703 20.4014 41.0569 20.4014C40.7964 20.4014 40.5596 20.4442 40.3473 20.5298C40.1351 20.6154 39.9529 20.7366 39.8008 20.8933C39.6495 21.0499 39.532 21.2394 39.4501 21.4608C39.3672 21.6821 39.3262 21.9308 39.3262 22.2041C39.3262 22.7625 39.4829 23.2015 39.7962 23.5213C40.1114 23.841 40.5422 24.0004 41.0906 24.0004C41.3302 24.0004 41.5443 23.9731 41.7337 23.9175C41.9232 23.862 42.0863 23.7854 42.2229 23.6861C42.3595 23.5869 42.4716 23.4684 42.5563 23.33C42.6419 23.1915 42.7011 23.0394 42.7348 22.8727L41.7155 22.8435C41.6882 22.9073 41.6536 22.962 41.6126 23.0066C41.5707 23.0521 41.5242 23.0886 41.4714 23.1168C41.4195 23.1451 41.3621 23.166 41.301 23.1797C41.24 23.1933 41.1762 23.1997 41.1116 23.1997C40.8984 23.1997 40.7299 23.135 40.6078 23.0048C40.484 22.8854 40.422 22.7033 40.422 22.46H42.7476V22.1831C42.7476 21.8015 42.6756 21.4781 42.5317 21.2112C42.3778 20.9343 42.171 20.7302 41.9141 20.5999L41.9132 20.599ZM40.4211 21.8142C40.4275 21.7313 40.4466 21.6521 40.4794 21.5783C40.5122 21.5045 40.5559 21.4389 40.6124 21.3833C40.668 21.3278 40.7354 21.2831 40.8146 21.2513C40.893 21.2194 40.9822 21.2039 41.0806 21.2039C41.2683 21.2039 41.4186 21.2604 41.5306 21.3715C41.6408 21.4835 41.7028 21.6311 41.7146 21.8142H40.4229H40.4211Z" fill="white"/>
<path d="M47.5849 21.8726L46.9127 21.745C46.654 21.694 46.5246 21.5966 46.5246 21.4545C46.5292 21.3579 46.5756 21.285 46.6658 21.2367C46.7533 21.1866 46.8608 21.1621 46.9865 21.1621C47.1422 21.1621 47.2652 21.1976 47.3545 21.2686C47.4437 21.3397 47.4975 21.4299 47.5157 21.5392L48.535 21.5118C48.5195 21.347 48.4758 21.1958 48.4029 21.0591C48.3301 20.9225 48.2289 20.805 48.0987 20.7084C47.9684 20.6119 47.809 20.5362 47.6195 20.4825C47.4301 20.4288 47.2124 20.4023 46.9655 20.4023C46.4946 20.4023 46.1202 20.4989 45.8414 20.6929C45.5654 20.887 45.427 21.1602 45.4233 21.5128C45.4233 21.7842 45.5071 22.0028 45.6756 22.1704C45.8442 22.338 46.1047 22.4556 46.459 22.5239L47.0675 22.6396C47.3508 22.6906 47.492 22.7917 47.492 22.942C47.4856 23.0331 47.4401 23.1041 47.3545 23.1551C47.2688 23.2071 47.1532 23.2326 47.0083 23.2326C46.8635 23.2326 46.7323 23.2007 46.6294 23.1369C46.5264 23.0732 46.4609 22.9748 46.4317 22.8418L45.335 22.8691C45.3623 23.1023 45.4443 23.3018 45.5827 23.4685C45.713 23.6316 45.8961 23.7618 46.1311 23.8584C46.3661 23.9549 46.6576 24.0023 47.0047 24.0023C47.4692 24.0023 47.8527 23.8966 48.1533 23.6844C48.453 23.4721 48.6088 23.1843 48.6216 22.819C48.6216 22.3162 48.2763 22.0019 47.5858 21.8744L47.5849 21.8726Z" fill="white"/>
<path d="M52.9597 23.1165C52.8686 23.1165 52.7994 23.0946 52.7511 23.0518C52.7029 23.009 52.6783 22.937 52.6783 22.8368V21.2628H53.3077V20.4457H52.6783V19.6104H51.5679V20.4457H51.1069V21.2628H51.5679V22.9589C51.5679 23.1311 51.5934 23.2823 51.6453 23.4107C51.6972 23.5391 51.771 23.6466 51.8694 23.7323C51.9668 23.8179 52.0862 23.8817 52.2274 23.9226C52.3686 23.9636 52.5271 23.9855 52.7038 23.9855C52.9689 23.9791 53.1911 23.9454 53.3715 23.8835L53.2039 23.0819C53.1173 23.1046 53.0363 23.1156 52.9607 23.1156L52.9597 23.1165Z" fill="white"/>
<path d="M58.9442 20.9087C58.8467 20.8039 58.7338 20.7137 58.6044 20.6381C58.476 20.5634 58.3312 20.5051 58.1708 20.4632C58.0105 20.4213 57.8338 20.4004 57.6416 20.4004C57.157 20.4004 56.7635 20.5316 56.461 20.793C56.0739 21.1264 55.8799 21.5955 55.8799 22.2013C55.8799 22.5584 55.9509 22.8717 56.093 23.1413C56.1595 23.2716 56.2424 23.3891 56.3408 23.4948C56.4392 23.6005 56.5531 23.6897 56.6824 23.7653C56.8118 23.84 56.9566 23.8983 57.1169 23.9393C57.2772 23.9803 57.4521 24.0003 57.6416 24.0003C58.231 24.0003 58.6882 23.8054 59.0153 23.4146C59.274 23.104 59.4033 22.7005 59.4033 22.2022C59.4033 21.8433 59.3332 21.5281 59.192 21.2576C59.1237 21.13 59.0408 21.0144 58.9433 20.9087H58.9442ZM58.2346 22.5757C58.2091 22.6932 58.1699 22.7952 58.1189 22.8826C58.067 22.9701 58.0023 23.0384 57.9249 23.0885C57.8466 23.1386 57.7546 23.1632 57.6489 23.1632C57.5432 23.1632 57.4476 23.1386 57.3683 23.0903C57.2891 23.0421 57.2226 22.9746 57.1697 22.8881C57.1169 22.8016 57.0768 22.6996 57.0504 22.5811C57.024 22.4627 57.0103 22.3343 57.0103 22.1949C57.0103 22.0555 57.0231 21.9353 57.0486 21.8169C57.0741 21.6985 57.1133 21.5946 57.1652 21.5053C57.2171 21.417 57.2836 21.3468 57.3638 21.2967C57.4439 21.2457 57.5387 21.2211 57.648 21.223C57.8466 21.223 57.9996 21.3113 58.1089 21.4889C58.2182 21.6647 58.272 21.8998 58.272 22.1949C58.272 22.3315 58.2592 22.4582 58.2337 22.5757H58.2346Z" fill="white"/>
<path d="M64.3791 21.1864L63.9792 21.0953C63.8717 21.0725 63.7761 21.0461 63.6923 21.017C63.6085 20.9878 63.5374 20.9523 63.4791 20.9113C63.4208 20.8703 63.3762 20.8239 63.3452 20.7719C63.3142 20.72 63.2988 20.6599 63.2988 20.5934C63.2988 20.5315 63.3115 20.4732 63.337 20.4185C63.3625 20.3638 63.4017 20.3165 63.4554 20.2764C63.5083 20.2363 63.5766 20.2044 63.6595 20.1826C63.7424 20.1598 63.8407 20.1489 63.9546 20.1489C64.0685 20.1489 64.1705 20.1616 64.257 20.1862C64.3436 20.2108 64.4155 20.2472 64.4729 20.2928C64.5303 20.3392 64.575 20.3948 64.6059 20.4595C64.6369 20.5242 64.656 20.597 64.6642 20.6772H65.7409C65.7346 20.1953 65.5405 19.8191 65.157 19.5467C64.8482 19.329 64.4483 19.2197 63.9583 19.2197C63.6021 19.2197 63.2887 19.2798 63.0155 19.3992C62.8834 19.4566 62.764 19.5267 62.6566 19.6078C62.5491 19.6898 62.4571 19.7827 62.3796 19.8883C62.3022 19.994 62.243 20.1115 62.2002 20.2418C62.1574 20.372 62.1364 20.5132 62.1364 20.6644C62.1437 21.3349 62.5764 21.7639 63.4327 21.9516L63.9191 22.0654C64.1823 22.1228 64.3727 22.193 64.4893 22.274C64.6059 22.356 64.6642 22.4571 64.6642 22.5783C64.6642 22.6466 64.6487 22.7104 64.6178 22.7687C64.5868 22.8279 64.5403 22.8789 64.4793 22.9235C64.4183 22.9672 64.3427 23.0019 64.2525 23.0265C64.1623 23.0511 64.0594 23.0638 63.9428 23.0638C63.7078 23.0638 63.5128 23.0092 63.357 22.9008C63.2013 22.7905 63.1129 22.6184 63.0938 22.3852H62.0171C62.0244 22.7486 62.1082 23.0483 62.2667 23.2843C62.4379 23.5338 62.6693 23.7142 62.9617 23.8244C63.2569 23.9365 63.5884 23.992 63.9564 23.992C64.533 23.992 64.9821 23.8709 65.3028 23.6286C65.6252 23.3863 65.7928 23.0383 65.8047 22.5838C65.7983 21.8559 65.3237 21.3895 64.3809 21.1846L64.3791 21.1864Z" fill="white"/>
<path d="M70.7944 22.4289C70.7944 22.5364 70.7789 22.6303 70.747 22.7095C70.7152 22.7888 70.6723 22.8552 70.6186 22.9072C70.5648 22.9591 70.502 22.9983 70.4309 23.0238C70.3599 23.0493 70.2852 23.062 70.206 23.062C70.1149 23.062 70.0356 23.0475 69.9691 23.0192C69.9017 22.9901 69.8452 22.9491 69.7988 22.8953C69.7523 22.8416 69.7177 22.7769 69.6931 22.7022C69.6685 22.6275 69.6558 22.5437 69.6548 22.4517V20.4468H68.5444V22.6703C68.5508 23.0684 68.6619 23.3872 68.8787 23.6268C69.0964 23.8627 69.3852 23.9811 69.7441 23.9811C70.0183 23.9811 70.2451 23.9183 70.4255 23.7926C70.6068 23.6641 70.7352 23.4947 70.809 23.2861H70.8454V23.9356H71.9039V20.4477H70.7962V22.4298L70.7944 22.4289Z" fill="white"/>
<path d="M75.8926 20.4468H74.7822V23.9347H75.8926V20.4468Z" fill="white"/>
<path d="M75.7435 19.1316C75.6333 19.0305 75.4994 18.9795 75.3418 18.9795C75.268 18.9795 75.196 18.9922 75.1268 19.0178C75.0576 19.0433 74.9975 19.0797 74.9455 19.1271C74.8936 19.1744 74.8517 19.23 74.8198 19.2938C74.7879 19.3584 74.7725 19.4295 74.7725 19.5087C74.7725 19.588 74.7879 19.6572 74.8198 19.7219C74.8517 19.7866 74.8936 19.843 74.9455 19.8895C74.9975 19.9369 75.0585 19.9733 75.1268 19.9997C75.196 20.0261 75.2671 20.0398 75.3418 20.0398C75.4994 20.0398 75.6333 19.9888 75.7435 19.8877C75.8555 19.7847 75.912 19.6581 75.912 19.5087C75.912 19.3593 75.8555 19.2318 75.7435 19.1316Z" fill="white"/>
<path d="M80.3987 23.1165C80.3076 23.1165 80.2384 23.0946 80.1901 23.0518C80.1418 23.009 80.1172 22.937 80.1172 22.8368V21.2628H80.7467V20.4457H80.1172V19.6104H79.0068V20.4457H78.5459V21.2628H79.0068V22.9589C79.0068 23.1311 79.0323 23.2823 79.0842 23.4107C79.1362 23.5391 79.21 23.6466 79.3083 23.7323C79.4058 23.8179 79.5251 23.8817 79.6663 23.9226C79.8075 23.9636 79.966 23.9855 80.1427 23.9855C80.4078 23.9791 80.6301 23.9454 80.8104 23.8835L80.6428 23.0819C80.5563 23.1046 80.4752 23.1156 80.3996 23.1156L80.3987 23.1165Z" fill="white"/>
<path d="M85.899 20.5988C85.6412 20.4667 85.3561 20.4011 85.0428 20.4011C84.7822 20.4011 84.5454 20.4439 84.3332 20.5296C84.1209 20.6152 83.9387 20.7363 83.7866 20.893C83.6354 21.0497 83.5179 21.2392 83.4359 21.4605C83.353 21.6819 83.312 21.9306 83.312 22.2038C83.312 22.7622 83.4687 23.2013 83.782 23.521C84.0972 23.8408 84.5281 24.0002 85.0765 24.0002C85.316 24.0002 85.5301 23.9728 85.7196 23.9173C85.909 23.8617 86.0721 23.7852 86.2087 23.6859C86.3454 23.5866 86.4574 23.4682 86.5421 23.3297C86.6278 23.1913 86.687 23.0391 86.7207 22.8724L85.7014 22.8433C85.674 22.9071 85.6394 22.9617 85.5984 23.0064C85.5565 23.0519 85.5101 23.0883 85.4572 23.1166C85.4053 23.1448 85.3479 23.1658 85.2869 23.1794C85.2259 23.1931 85.1621 23.1995 85.0974 23.1995C84.8843 23.1995 84.7157 23.1348 84.5937 23.0045C84.4698 22.8852 84.4078 22.703 84.4078 22.4598H86.7334V22.1829C86.7334 21.8012 86.6615 21.4778 86.5175 21.2109C86.3636 20.934 86.1568 20.73 85.8999 20.5997L85.899 20.5988ZM84.4069 21.814C84.4133 21.7311 84.4324 21.6518 84.4652 21.578C84.498 21.5042 84.5418 21.4387 84.5982 21.3831C84.6538 21.3275 84.7212 21.2829 84.8005 21.251C84.8788 21.2191 84.9681 21.2036 85.0664 21.2036C85.2541 21.2036 85.4044 21.2601 85.5164 21.3713C85.6267 21.4833 85.6886 21.6309 85.7004 21.814H84.4088H84.4069Z" fill="white"/>
</g>
<defs>
<clipPath id="clip0_1667_1269">
<rect width="87.104" height="24" fill="white"/>
</clipPath>
</defs>
</svg>
